# xmcd
#
# Track frame offsets: 
#        150
#        14614
#        29399
#
# Disc length: 603 seconds
#
# Revision: 0
# Processed by: cddbd v1.5.2PL0 Copyright (c) Steve Scherf et al.
# Submitted via: ExactAudioCopy v1.0b1
#
DISCID=1d025903
DTITLE=Lady Nade - Lady Nade EP
DYEAR=2011
DGENRE=Blues
TTITLE0=Journey
TTITLE1=Feed Him With Your Love
TTITLE2=Wrap Me Up
EXTD=
EXTT0=
EXTT1=
EXTT2=
PLAYORDER=
